<?xml version="1.0" encoding="UTF-8"?>
<!DOCTYPE svg PUBLIC "-//W3C//DTD SVG 1.1//EN" "http://www.w3.org/Graphics/SVG/1.1/DTD/svg11.dtd">
<!-- Creator: CorelDRAW -->
<svg xmlns="http://www.w3.org/2000/svg" xml:space="preserve" width="297mm" height="210mm" version="1.1" style="shape-rendering:geometricPrecision; text-rendering:geometricPrecision; image-rendering:optimizeQuality; fill-rule:evenodd; clip-rule:evenodd"
viewBox="0 0 29700 21000"
 xmlns:xlink="http://www.w3.org/1999/xlink"
 xmlns:xodm="http://www.corel.com/coreldraw/odm/2003">
 <defs>
  <style type="text/css">
   <![CDATA[
    .fil1 {fill:#57C0A4}
    .fil0 {fill:#313B6B}
   ]]>
  </style>
 </defs>
 <g id="Camada_x0020_1">
  <metadata id="CorelCorpID_0Corel-Layer"/>
  <path class="fil0" d="M13348.46 10594.07c13.71,-189.63 -108.91,-321.93 -298.58,-321.93 -185.87,0 -331.75,132.31 -345.53,321.94 -13.54,182.64 108.79,318.46 298.07,318.46 182.76,0 331.75,-128.93 346.04,-318.47z"/>
  <path class="fil0" d="M14918.44 9686.9c39.24,-58.82 118.6,-74.62 177.69,-35.34 59.04,39.31 74.95,118.96 35.21,177.85 -39.11,58.7 -118.65,74.56 -177.74,35.3 -58.56,-39.28 -74.38,-118.8 -35.16,-177.81z"/>
  <path class="fil0" d="M13462 9794.87c76.1,-113.97 230.31,-144.61 344.11,-68.58 113.81,76.15 144.78,230.46 68.69,344.37 -76.2,114 -230.42,144.74 -344.44,68.64 -113.68,-76.31 -144.71,-230.27 -68.36,-344.43z"/>
  <path class="fil0" d="M14260.53 9543.12c56.23,-84.54 170.33,-107.38 255.39,-50.78 84.45,56.41 107.23,170.73 50.7,255.39 -56.54,84.59 -170.92,107.33 -255.24,50.75 -84.85,-56.49 -107.7,-170.65 -50.85,-255.36z"/>
  <path class="fil0" d="M22696.84 12318.85c-12.63,167.73 -145.58,250.2 -259.37,250.2 -98.42,-0.02 -181.81,-63.32 -171.43,-208.88 15.28,-205.91 216.53,-272.51 447.68,-272.51l-16.88 231.19zm573.47 -436.94c29.42,-395.81 -88.61,-769.42 -677.68,-769.42 -307.02,-0.02 -544.8,88.76 -663.66,152.02l74.68 361.07c119.49,-69.74 281.22,-120.42 448.99,-120.42 225.17,-0.01 277.77,98.09 267.82,234.22 -525.61,3.16 -961.98,205.75 -996.93,677.69 -22.2,300.6 171.95,547.6 494.42,547.6 183.91,0 356.52,-63.26 474.81,-205.74l9.24 0 19.2 171.02 500.42 0c-14.67,-107.76 -9.24,-262.75 2.23,-421.15l46.46 -626.89z"/>
  <path class="fil0" d="M21536.52 12477.03c-71.6,28.7 -155.69,44.44 -253.59,44.44 -237.4,0 -401.73,-174.14 -378.69,-484.4 18.01,-288.15 194.13,-484.41 447.18,-484.41 111.15,0 185.51,22.18 240.79,41.16l110.31 -421.15c-76.98,-28.43 -207.78,-56.94 -347.13,-56.94 -598.26,-0.02 -976.65,405.28 -1016.49,943.56 -42.28,569.78 272.2,902.16 804.1,902.16 173.8,-0.01 334.51,-31.5 413.16,-66.35l-19.64 -418.07z"/>
  <polygon class="fil0" points="20187.02,11147.36 19629.93,11147.36 19497.92,12929.95 20055.2,12929.95 "/>
  <path class="fil0" d="M19328.53 11843.93c34.42,-462.23 -145.15,-731.44 -518.63,-731.44 -247.2,-0.02 -424.74,139.41 -513.35,259.68l-9.06 0 -12.3 -224.81 -478.05 0c-5.96,167.79 -14.09,357.8 -29.48,569.96l-89.63 1212.63 557.09 0 77.41 -1044.82c16.84,-227.95 146.48,-313.43 263.83,-313.43 158.29,-0.01 205.17,136.07 191.3,322.88l-76.5 1035.37 557.52 0 79.85 -1086.02z"/>
  <path class="fil0" d="M17457.72 12477.03c-71.61,28.7 -155.28,44.44 -253.57,44.44 -237.31,0 -401.65,-174.14 -378.7,-484.4 18.31,-288.15 194.33,-484.41 447.59,-484.41 110.92,0 185.24,22.18 240.78,41.16l110.22 -421.15c-76.98,-28.43 -207.79,-56.94 -347.25,-56.94 -598.25,-0.02 -976.58,405.28 -1016.28,943.56 -42.38,569.78 271.89,902.16 803.71,902.16 174.3,-0.01 334.61,-31.5 413.37,-66.35l-19.87 -418.07z"/>
  <path class="fil0" d="M15100.67 11853.48c20.4,-148.89 108.89,-357.87 298.69,-357.87 193.33,0 229,199.64 217.38,357.89l-516.07 -0.02zm818.4 623.55c-130.07,41.26 -271.67,69.74 -432.72,69.74 -231.36,0 -413.79,-98.2 -410.92,-310.21l1006.84 -0.02c17.41,-60.08 26.95,-148.88 33.16,-234.26 44.75,-604.83 -234.8,-889.79 -659.23,-889.79 -531.65,-0.02 -862.57,446.48 -900.17,956.29 -41.36,557.15 250.28,892.67 810.83,892.67 212.08,-0.01 426.52,-31.5 596.34,-98.16l-44.13 -386.26z"/>
  <path class="fil0" d="M13578.99 11147.36l-218.33 0 -29.51 402.06 218.17 0 -54.72 740.97c-15.18,202.61 -40.33,671.06 507.19,671.06 149.05,-0.01 273.71,-18.88 345.41,-40.95l28.53 -430.8c-48.51,12.89 -83.44,16.03 -146.76,16.03 -133.14,0 -193.86,-76.1 -178.47,-284.97l49.7 -671.34 370.35 0 30 -402.06 -370.62 0 35.68 -481.15 -562.38 155.1 -24.24 326.05z"/>
  <polygon class="fil1" points="13183.03,11147.36 12625.72,11147.36 12493.92,12929.95 13051.4,12929.95 "/>
  <path class="fil1" d="M11516.65 11147.36l-218.4 0 -29.85 402.06 218.48 0 -54.97 740.97c-14.61,202.61 -40.17,671.06 507.76,671.06 149.02,-0.01 273.71,-18.88 345.21,-40.95l28.54 -430.8c-48.4,12.89 -83.56,16.03 -146.67,16.03 -133.14,0 -193.96,-76.1 -178.57,-284.97l49.72 -671.34 370.43 0 29.69 -402.06 -370.19 0 35.68 -481.15 -562.55 155.1 -24.31 326.05z"/>
  <polygon class="fil1" points="11177.45,10378 10620.86,10378 10431.39,12929.95 10989.02,12929.95 "/>
  <path class="fil1" d="M10280.15 11147.36l-557.01 0 -81.19 1092.33c-13.16,180.39 -130.51,269.11 -244.46,269.11 -155.35,-0.01 -211.59,-139.41 -193.33,-379.84l72.13 -981.6 -556.8 0 -78.64 1060.68c-37.87,512.86 146.81,756.63 507.77,756.63 259.35,0 431.4,-142.47 515.85,-256.48l9.71 -0.01 8.91 221.77 480.8 0c5.43,-158.35 10.48,-354.75 26.91,-573.07l89.35 -1209.52z"/>
  <path class="fil1" d="M8426.75 10482.42l-671.37 0 -267.5 788.36c-93.73,285.06 -186.56,598.4 -257.96,880.25l-12.94 -0.01c-26.06,-288.15 -73.43,-585.67 -121.62,-876.86l-137.89 -791.74 -680.66 0 -348.81 2447.53 499.96 0 105.76 -870.66c32.29,-262.8 73.43,-607.96 105.29,-911.91l9.61 -0.02c28.52,300.88 73.33,633.27 116.61,867.55l153.9 870.6 420.94 0 305.36 -876.86c83.87,-234.29 194.07,-566.87 279.13,-861.27l9.64 -0.02c-27.26,323.04 -38.79,649.13 -45.1,908.69l-29.84 873.9 525.61 0 41.88 -2447.53z"/>
  <path class="fil0" d="M23509.62 12746.53l43.58 0c21.48,0 35.14,-2.98 42.87,-9.35 7.48,-6.15 11.31,-14.44 11.31,-24.45 -0.4,-6.53 -2.35,-12.46 -5.9,-17.68 -3.68,-5.32 -9.18,-9.02 -15.27,-11.64 -6.83,-2.55 -18.67,-3.9 -36.2,-3.9l-41.25 -0.01 0.86 67.03zm-34.54 125.42l35.74 0 -0.68 -94.56 20.74 0c12.83,-0.11 22.32,2.56 29.15,7.62 9.88,6.89 22.58,24.15 38.48,51.89l20.01 35.05 43.9 0 -27.86 -43.51c-13.24,-20.75 -24.31,-35.6 -33.39,-44.22 -4.89,-4.64 -11.1,-8.54 -19.24,-11.88 19.57,-1.3 34.74,-8.03 46.11,-20.39 11.73,-12.06 17.62,-26.08 17.62,-42.35 -0.52,-11.54 -4.48,-22.37 -11.1,-32.6 -7.07,-10.23 -16.69,-17.58 -28.54,-21.54 -11.57,-4.23 -30.55,-6.09 -56.78,-6.09l-76.51 -0.02 2.35 222.6zm87.57 -287.37c-28.89,0 -57.23,7.41 -84.65,22.37 -27.59,14.96 -48.67,36.35 -63.84,64 -15.49,27.63 -22.86,56.64 -22.63,86.57 0.41,29.88 8.54,58.62 23.93,85.96 16.03,27.36 37.29,48.65 65.2,64.04 27.48,15.23 56.21,23 85.99,23 29.63,0 58.78,-7.77 86.16,-23 26.93,-15.39 47.87,-36.66 62.85,-64.04 15.18,-27.34 22.1,-56.06 22,-85.96 -0.31,-29.93 -8.34,-58.92 -24.35,-86.57 -15.6,-27.65 -37.61,-49.02 -65.61,-64 -27.45,-14.96 -56.12,-22.37 -85.05,-22.37zm-0.25 -34.43c34.99,0 68.71,8.98 102.3,26.76 33.13,17.89 59.4,43.45 78.07,76.73 19.16,33.2 28.79,68.06 29.22,103.88 0.01,35.83 -8.46,70.11 -26.19,103 -17.93,33.12 -43.08,58.64 -75.98,76.78 -32.38,18.46 -66.81,27.37 -102.8,27.37 -36.14,0 -70.04,-8.91 -103.48,-27.37 -32.99,-18.14 -58.97,-43.65 -77.29,-76.78 -19.06,-32.89 -28.21,-67.16 -29.05,-103 -0.4,-35.83 8.87,-70.66 26.92,-103.88 18.3,-33.28 43.85,-58.84 76.65,-76.73 33.36,-17.78 66.93,-26.74 101.63,-26.76z"/>
  <path class="fil1" d="M15232.09 10926.45c20.88,-87.83 105.52,-255.7 427.61,-440.07 471.63,-269.95 440.66,-340.35 440.66,-340.35 66.96,376.79 -9.55,648.22 -168.15,859.38 -141.69,-75.04 -371.59,-109.72 -535.31,-105.5 -56.01,4.65 -111.24,13.6 -164.81,26.54z"/>
  <path class="fil1" d="M15519.58 10073.06c69.57,111.97 78.53,208.46 103.46,321.9 -312.59,136.67 -453.69,305.2 -508.18,489.4 -171.43,-426.16 198.23,-523.94 404.72,-811.3z"/>
  <path class="fil0" d="M19709.02 10599c88.54,-127.97 262.53,-162.38 388.24,-77.01 125.72,85.51 156.29,258.78 67.75,386.68 -88.66,128 -262.67,162.51 -388.61,77.07 -125.58,-85.69 -156.23,-258.56 -67.38,-386.74z"/>
 </g>
</svg>
